<svg width="250" height="150" xmlns="http://www.w3.org/2000/svg" xmlns:xlink="http://www.w3.org/1999/xlink">
  <g transform="translate(60)">
    <path d="M3.6 7.8c1.4 2.8 3.8 5.1 6.6 6.6l2.2-2.2c.3-.3.7-.4 1-.2 1.1.4 2.3.6 3.6.6.6 0 1 .4 1 1V17c0 .6-.4 1-1 1C7.6 18 0 10.4 0 1c0-.6.4-1 1-1h3.5c.6 0 1 .4 1 1 0 1.2.2 2.4.6 3.6.1.3 0 .7-.2 1L3.6 7.8z" fill="#010101"/>
  </g>

  <g transform="translate(85)">
    <path d="M8 8c-.3 0-.5-.1-1-.3L0 4v7c0 .5.5 1 1 1h14c.5 0 1-.5 1-1V4L9 7.7c-.5.2-.7.3-1 .3zm7-8H1C.5 0 0 .5 0 1v.8L8 6l8-4.2V1c0-.5-.5-1-1-1z" fill="#000"/>
  </g>

  <g transform="translate(0 25)">
    <path d="M29.62 64.94h16.06V41.17H29.62v23.77zm13.15-2.89H32.53v-18h10.14v18h.1z" fill="#81B3D2"/><path d="M72.9 39.18L75 37.1l-9.94-9.84V.4H51.2v13.12L37.45 0 0 37.2l2.1 2.08 7.84-7.76v37.6H6.02V72h64.16v-2.88h-5.12v-37.7l7.83 7.76zM54.11 3.38h7.93v20.98l-7.93-7.85V3.38zm8.03 65.64h-49.2V28.54l24.5-24.36 24.6 24.36v40.48h.1z" fill="#81B3D2"/><path d="M29.92 27.05a7.78 7.78 0 0015.56 0 7.72 7.72 0 00-7.83-7.66 7.63 7.63 0 00-7.73 7.66zm7.73-4.97a5.01 5.01 0 015.02 4.97 5.01 5.01 0 01-10.04 0c0-2.69 2.31-4.97 5.02-4.97zM19.98 41.17h-3.01v3.88h3.01v-3.88zM25.9 41.17h-3v3.88h3v-3.88zM19.98 47.14h-3.01v3.88h3.01v-3.88zM25.9 47.14h-3v3.88h3v-3.88zM52 41.17h-3v3.88h3v-3.88zM58.03 41.17h-3.01v3.88h3.01v-3.88zM52 47.14h-3v3.88h3v-3.88zM58.03 47.14h-3.01v3.88h3.01v-3.88z" fill="#81B3D2"/>
  </g>

  <g transform="translate(80 25)">
    <path d="M71.71 45.33H4.3A4.3 4.3 0 000 49.57v3.45c0 2.27 1.9 4.14 4.29 4.14h1v.98a9.84 9.84 0 009.87 9.76h45.68a9.84 9.84 0 009.87-9.76v-.98h1A4.3 4.3 0 0076 52.92v-3.45c0-2.17-1.9-4.14-4.29-4.14zm-3.89 12.81c0 3.75-3.09 6.8-6.88 6.8H15.06a6.85 6.85 0 01-6.88-6.8v-.98h59.64v.98zm5.19-5.22c0 .7-.6 1.28-1.3 1.28H4.3c-.7 0-1.3-.59-1.3-1.28v-3.45c0-.59.6-1.18 1.3-1.18H71.8c.7 0 1.3.59 1.3 1.28v3.35H73zM16.16 37.35l5.38 3.94 5.49-3.94 5.48 3.94L38 37.35l5.39 3.94 5.48-3.94 5.49 3.94 5.48-3.94 5.49 3.94 6.28-4.63-1.7-2.37-4.58 3.26-5.49-3.95-5.48 3.95-5.49-3.95-5.48 3.95L38 33.6l-5.49 3.95-5.48-3.95-5.49 3.95-5.38-3.95-5.49 3.95-4.59-3.26-1.8 2.37 6.4 4.63 5.48-3.94zM70.71 30.65c0-.6.1-2.56 0-2.96C70.01 12.32 55.65 0 38 0S5.88 12.32 5.19 27.7v2.95H70.7zM38 2.95C53.96 2.96 67.12 14 67.72 27.7H8.18C8.88 14 22.04 2.96 38 2.96z" fill="#81B3D2"/><path d="M38 16.75c1.1 0 2-.88 2-1.97 0-1.09-.9-1.97-2-1.97s-2 .88-2 1.97c0 1.1.9 1.97 2 1.97zM30.02 11.92c1.1 0 2-.88 2-1.97 0-1.09-.9-1.97-2-1.97s-2 .88-2 1.97c0 1.1.9 1.97 2 1.97zM45.98 11.92c1.1 0 2-.88 2-1.97 0-1.09-.9-1.97-2-1.97s-2 .88-2 1.97c0 1.1.9 1.97 2 1.97z" fill="#81B3D2"/>
  </g>

  <g transform="translate(170 25)">
    <path d="M61.16 22.12h-24.8c13.82-6.8 14.94-11.1 14.43-13.5-1.11-3.9-5.69-6.9-9.95-5.3-5.59 2.1-7.11 10.3-8.64 16.2-1.93-6-3.76-13.6-8.12-17.5a7.47 7.47 0 00-5.8-2c-4.06.4-9.85 5.3-7.41 10.8 2.23 5.3 9.65 8.7 14.63 11.4H2.84A2.82 2.82 0 000 25.02v11.2c0 1.6 1.32 2.8 2.84 2.8h.3V75h57.91V39.01h.1c1.63 0 2.85-1.3 2.85-2.8v-11.2a2.9 2.9 0 00-2.84-2.9zm-18.7-16.3c2.14-.3 4.98 1.3 5.29 3.2.4 2.7-3.36 5.2-5.08 6.3-2.54 1.7-4.98 2.6-7.32 4 .82-3.7 2.54-12.9 7.11-13.5zm-22.96 9.8c-2.23-1.5-6.5-4.4-6.4-7.7.1-3.6 5.8-6.5 8.84-3.8 3.86 3.3 5.7 11 7.11 16.4-3.25-1.6-6.3-2.8-9.55-4.9zm6 56.38H6.1V39.01h19.4v33zm0-35.99H3.05v-10.9H25.5v10.9zm10.16 36h-7.22V25.1h7.22v46.9zM58 72H38.7V39h19.4v33H58zm2.94-36H38.7v-10.9h22.25v10.9z" fill="#81B3D2"/>
  </g>

  <g transform="translate(0 100)">
    <path d="M15.4 33.22h8.35V21.06H15.4v12.16zm6.84-1.48h-5.32v-9.2h5.27v9.2h.05z" fill="#81B3D2"/><path d="M37.9 20.04l1.1-1.07-5.17-5.03V.2h-7.2v6.72L19.47 0 0 19.03l1.1 1.06 4.07-3.96v19.23H3.13v1.47H36.5v-1.47h-2.66V16.08l4.07 3.96zM28.14 1.73h4.13v10.73l-4.13-4.02V1.73zm4.18 33.57H6.73V14.6L19.47 2.14l12.8 12.46v20.7h.05z" fill="#81B3D2"/><path d="M15.56 13.84a4.01 4.01 0 004.02 3.96 4.03 4.03 0 004.07-3.96 3.98 3.98 0 00-4.07-3.92 3.94 3.94 0 00-4.02 3.92zm4.02-2.55a2.59 2.59 0 012.6 2.55 2.58 2.58 0 01-2.6 2.54 2.59 2.59 0 01-2.61-2.54c0-1.38 1.2-2.55 2.6-2.55zM10.39 21.06H8.82v1.99h1.57v-1.99zM13.47 21.06H11.9v1.99h1.57v-1.99zM10.39 24.11H8.82v1.99h1.57V24.1zM13.47 24.11H11.9v1.99h1.57V24.1zM27.04 21.06h-1.56v1.99h1.56v-1.99zM30.18 21.06H28.6v1.99h1.57v-1.99zM27.04 24.11h-1.56v1.99h1.56V24.1zM30.18 24.11H28.6v1.99h1.57V24.1z" fill="#81B3D2"/>
  </g>

  <g transform="translate(45 100)">
    <path d="M37.74 23.3H2.26A2.23 2.23 0 000 25.48v1.77c0 1.17 1 2.13 2.26 2.13h.52v.5a5.12 5.12 0 005.2 5.02h24.04c2.89 0 5.2-2.28 5.2-5.01v-.51h.52c1.21 0 2.26-.96 2.26-2.18v-1.77c0-1.12-1-2.13-2.26-2.13zm-2.04 6.59c0 1.92-1.63 3.49-3.63 3.49H7.93c-2 0-3.63-1.57-3.63-3.5v-.5h31.4v.5zm2.73-2.69c0 .36-.32.66-.69.66H2.26a.68.68 0 01-.69-.66v-1.77c0-.3.32-.61.69-.61H37.8c.36 0 .68.3.68.66v1.72h-.05zM8.5 19.2l2.84 2.02 2.89-2.02 2.88 2.02L20 19.2l2.83 2.02 2.9-2.02 2.88 2.02 2.89-2.02 2.88 2.02 3.31-2.38-.9-1.21-2.4 1.67-2.9-2.03-2.88 2.03-2.89-2.03-2.89 2.03L20 17.27l-2.89 2.03-2.88-2.03-2.9 2.03-2.83-2.03-2.88 2.03-2.42-1.67-.94 1.21 3.36 2.38L8.5 19.2zM37.22 15.75c0-.3.05-1.31 0-1.52C36.85 6.33 29.29 0 20 0 10.7 0 3.1 6.33 2.73 14.23v1.52h34.49zM20 1.52c8.4 0 15.33 5.67 15.64 12.71H4.3C4.67 7.2 11.6 1.52 20 1.52z" fill="#81B3D2"/><path d="M20 8.61c.58 0 1.05-.45 1.05-1.01S20.58 6.58 20 6.58c-.58 0-1.05.46-1.05 1.02S19.42 8.6 20 8.6zM15.8 6.13c.58 0 1.05-.45 1.05-1.01S16.38 4.1 15.8 4.1c-.58 0-1.05.46-1.05 1.02s.47 1 1.05 1zM24.2 6.13c.58 0 1.05-.45 1.05-1.01S24.78 4.1 24.2 4.1c-.58 0-1.05.46-1.05 1.02s.47 1 1.05 1z" fill="#81B3D2"/>
  </g>

  <g transform="translate(90 100)">
    <path d="M30.58 11.2h-12.4c6.91-3.44 7.47-5.62 7.22-6.83-.56-1.98-2.85-3.5-4.98-2.69-2.8 1.07-3.56 5.22-4.32 8.2-.96-3.03-1.88-6.88-4.06-8.85A3.7 3.7 0 009.14 0c-2.03.2-4.92 2.69-3.7 5.47 1.11 2.69 4.82 4.4 7.3 5.78H1.43c-.81 0-1.42.65-1.42 1.41v5.68c0 .8.66 1.42 1.42 1.42h.15V38h28.96V19.77h.05c.81 0 1.42-.66 1.42-1.42v-5.68c0-.8-.66-1.46-1.42-1.46zm-9.35-8.25c1.07-.15 2.5.66 2.64 1.62.2 1.37-1.67 2.63-2.54 3.2-1.27.85-2.49 1.3-3.65 2.02.4-1.88 1.27-6.54 3.55-6.84zM9.75 7.91c-1.12-.76-3.25-2.23-3.2-3.9C6.6 2.2 9.45.72 10.97 2.1c1.93 1.67 2.85 5.57 3.56 8.3-1.63-.8-3.15-1.41-4.78-2.48zm3 28.57h-9.7V19.77h9.7v16.71zm0-18.23H1.52v-5.52h11.23v5.52zm5.08 18.23h-3.6V12.73h3.6v23.75zm11.17 0h-9.65V19.77h9.7v16.71H29zm1.48-18.23H19.35v-5.52h11.13v5.52z" fill="#81B3D2"/>
  </g>

  <g>
    <path d="M11.3.17c1.7-.5 3.1.2 3.7 1.1.7-.2 1.4-.5 2.1-.7 0 .8-.5 1.5-.9 1.7.7.2 1.3-.5 1.3-.5-.2 1-1 1.7-1.6 2-.2 6.6-3.3 11-10.4 10.8H5c-.4 0-4.3-.4-5-1.8 2.3.2 4-.4 4.8-1.1-1-.3-2.8-.5-3.1-2.9.4.1.6.2 1.3.1-1.2-.8-2.6-1.5-2.5-3.7.3.3 1.1.5 1.4.5-.7-.2-2-3.3-.9-4.8 1.9 1.8 3.8 3.5 7.4 3.7.1-2.3 1.1-3.8 2.9-4.4z" fill="#fff"/>
  </g>

  <g transform="translate(20)">
    <path d="M6.3 3.4h2.4V0H5.8C2.7.2 1.5 2.4 1.9 6.1H0v3.5h2v9.3h3.8V9.6h2.9V6.1H5.8c0-1 0-2.4.5-2.7z" fill="#fff"/>
  </g>

  <g transform="translate(35)">
    <path d="M17.1 0H2.8C1.3 0 0 1.3 0 2.8v8.3C0 12.7 1.3 14 2.8 14h14.3c1.6 0 2.8-1.3 2.8-2.8V2.8C20 1.3 18.7 0 17.1 0zM7 10.4V3.6L13.8 7 7 10.4z" fill="#fff"/>
  </g>
</svg>
